<svg width="851" height="72" viewBox="0 0 851 72" fill="none" xmlns="http://www.w3.org/2000/svg">
<rect width="736.931" height="72" fill="white"/>
<path d="M217.685 43.9412V26.7615H224.166C225.307 26.7615 226.178 26.8162 226.779 26.9255C227.623 27.0662 228.33 27.3357 228.9 27.7341C229.471 28.1248 229.928 28.6755 230.271 29.3865C230.623 30.0974 230.799 30.8787 230.799 31.7302C230.799 33.1912 230.334 34.4295 229.404 35.4451C228.474 36.4529 226.795 36.9568 224.365 36.9568H219.959V43.9412H217.685ZM219.959 34.9295H224.4C225.869 34.9295 226.912 34.656 227.529 34.1091C228.146 33.5623 228.455 32.7927 228.455 31.8005C228.455 31.0818 228.271 30.4685 227.904 29.9607C227.545 29.4451 227.068 29.1052 226.474 28.9412C226.092 28.8396 225.385 28.7888 224.353 28.7888H219.959V34.9295ZM233.377 43.9412V26.7615H235.486V43.9412H233.377ZM246.889 42.406C246.107 43.0701 245.353 43.5388 244.627 43.8123C243.908 44.0857 243.135 44.2224 242.307 44.2224C240.939 44.2224 239.889 43.8904 239.154 43.2263C238.42 42.5545 238.053 41.699 238.053 40.6599C238.053 40.0505 238.189 39.4959 238.463 38.9959C238.744 38.488 239.107 38.0818 239.553 37.7771C240.006 37.4724 240.514 37.242 241.076 37.0857C241.49 36.9763 242.115 36.8709 242.951 36.7693C244.654 36.5662 245.908 36.324 246.713 36.0427C246.721 35.7537 246.724 35.5701 246.724 35.492C246.724 34.6326 246.525 34.0271 246.127 33.6755C245.588 33.199 244.787 32.9607 243.724 32.9607C242.732 32.9607 241.998 33.1365 241.521 33.488C241.053 33.8318 240.705 34.4451 240.478 35.3279L238.416 35.0466C238.603 34.1638 238.912 33.4529 239.342 32.9138C239.771 32.367 240.392 31.949 241.205 31.6599C242.017 31.363 242.959 31.2146 244.029 31.2146C245.092 31.2146 245.955 31.3396 246.619 31.5896C247.283 31.8396 247.771 32.156 248.084 32.5388C248.396 32.9138 248.615 33.3904 248.74 33.9685C248.81 34.3279 248.846 34.9763 248.846 35.9138V38.7263C248.846 40.6873 248.889 41.9295 248.974 42.4529C249.068 42.9685 249.248 43.4646 249.514 43.9412H247.31C247.092 43.5037 246.951 42.992 246.889 42.406ZM246.713 37.6951C245.947 38.0076 244.799 38.2732 243.267 38.492C242.4 38.617 241.787 38.7576 241.428 38.9138C241.068 39.0701 240.791 39.3005 240.596 39.6052C240.4 39.9021 240.303 40.2341 240.303 40.6013C240.303 41.1638 240.514 41.6326 240.935 42.0076C241.365 42.3826 241.99 42.5701 242.81 42.5701C243.623 42.5701 244.346 42.3943 244.978 42.0427C245.611 41.6834 246.076 41.1951 246.373 40.5779C246.599 40.1013 246.713 39.3982 246.713 38.4685V37.6951ZM256.732 42.0545L257.037 43.9177C256.443 44.0427 255.912 44.1052 255.443 44.1052C254.678 44.1052 254.084 43.9841 253.662 43.742C253.24 43.4998 252.943 43.1834 252.771 42.7927C252.599 42.3943 252.514 41.5623 252.514 40.2966V33.1365H250.967V31.4959H252.514V28.4138L254.611 27.1482V31.4959H256.732V33.1365H254.611V40.4138C254.611 41.0154 254.646 41.4021 254.717 41.574C254.795 41.7459 254.916 41.8826 255.08 41.9841C255.252 42.0857 255.494 42.1365 255.807 42.1365C256.041 42.1365 256.349 42.1091 256.732 42.0545ZM266.928 42.406C266.146 43.0701 265.392 43.5388 264.666 43.8123C263.947 44.0857 263.174 44.2224 262.346 44.2224C260.978 44.2224 259.928 43.8904 259.193 43.2263C258.459 42.5545 258.092 41.699 258.092 40.6599C258.092 40.0505 258.228 39.4959 258.502 38.9959C258.783 38.488 259.146 38.0818 259.592 37.7771C260.045 37.4724 260.553 37.242 261.115 37.0857C261.529 36.9763 262.154 36.8709 262.99 36.7693C264.693 36.5662 265.947 36.324 266.752 36.0427C266.76 35.7537 266.764 35.5701 266.764 35.492C266.764 34.6326 266.564 34.0271 266.166 33.6755C265.627 33.199 264.826 32.9607 263.764 32.9607C262.771 32.9607 262.037 33.1365 261.56 33.488C261.092 33.8318 260.744 34.4451 260.517 35.3279L258.455 35.0466C258.642 34.1638 258.951 33.4529 259.381 32.9138C259.81 32.367 260.432 31.949 261.244 31.6599C262.057 31.363 262.998 31.2146 264.068 31.2146C265.131 31.2146 265.994 31.3396 266.658 31.5896C267.322 31.8396 267.81 32.156 268.123 32.5388C268.435 32.9138 268.654 33.3904 268.779 33.9685C268.849 34.3279 268.885 34.9763 268.885 35.9138V38.7263C268.885 40.6873 268.928 41.9295 269.014 42.4529C269.107 42.9685 269.287 43.4646 269.553 43.9412H267.349C267.131 43.5037 266.99 42.992 266.928 42.406ZM266.752 37.6951C265.986 38.0076 264.838 38.2732 263.307 38.492C262.439 38.617 261.826 38.7576 261.467 38.9138C261.107 39.0701 260.83 39.3005 260.635 39.6052C260.439 39.9021 260.342 40.2341 260.342 40.6013C260.342 41.1638 260.553 41.6326 260.974 42.0076C261.404 42.3826 262.029 42.5701 262.849 42.5701C263.662 42.5701 264.385 42.3943 265.017 42.0427C265.65 41.6834 266.115 41.1951 266.412 40.5779C266.639 40.1013 266.752 39.3982 266.752 38.4685V37.6951ZM272.67 43.9412V33.1365H270.807V31.4959H272.67V30.1716C272.67 29.3357 272.744 28.7146 272.892 28.3084C273.096 27.7615 273.451 27.3201 273.959 26.9841C274.474 26.6404 275.193 26.4685 276.115 26.4685C276.709 26.4685 277.365 26.5388 278.084 26.6795L277.767 28.5193C277.33 28.4412 276.916 28.4021 276.525 28.4021C275.885 28.4021 275.432 28.5388 275.166 28.8123C274.9 29.0857 274.767 29.5974 274.767 30.3474V31.4959H277.193V33.1365H274.767V43.9412H272.67ZM278.06 37.7185C278.06 35.4138 278.701 33.7068 279.982 32.5974C281.053 31.6755 282.357 31.2146 283.896 31.2146C285.607 31.2146 287.006 31.7771 288.092 32.9021C289.178 34.0193 289.721 35.5662 289.721 37.5427C289.721 39.1443 289.478 40.406 288.994 41.3279C288.517 42.242 287.818 42.9529 286.896 43.4607C285.982 43.9685 284.982 44.2224 283.896 44.2224C282.154 44.2224 280.744 43.6638 279.666 42.5466C278.596 41.4295 278.06 39.8201 278.06 37.7185ZM280.228 37.7185C280.228 39.3123 280.576 40.5076 281.271 41.3045C281.967 42.0935 282.842 42.488 283.896 42.488C284.943 42.488 285.814 42.0896 286.51 41.2927C287.205 40.4959 287.553 39.281 287.553 37.6482C287.553 36.1091 287.201 34.9451 286.498 34.156C285.803 33.3591 284.935 32.9607 283.896 32.9607C282.842 32.9607 281.967 33.3552 281.271 34.1443C280.576 34.9334 280.228 36.1248 280.228 37.7185ZM292.182 43.9412V31.4959H294.08V33.3826C294.564 32.4998 295.01 31.9177 295.416 31.6365C295.83 31.3552 296.283 31.2146 296.775 31.2146C297.486 31.2146 298.209 31.4412 298.943 31.8943L298.217 33.8513C297.701 33.5466 297.185 33.3943 296.67 33.3943C296.209 33.3943 295.795 33.5349 295.428 33.8162C295.06 34.0896 294.799 34.4724 294.642 34.9646C294.408 35.7146 294.291 36.5349 294.291 37.4255V43.9412H292.182ZM300.197 43.9412V31.4959H302.084V33.242C302.474 32.6326 302.994 32.1443 303.642 31.7771C304.291 31.4021 305.029 31.2146 305.857 31.2146C306.779 31.2146 307.533 31.406 308.119 31.7888C308.713 32.1716 309.131 32.7068 309.373 33.3943C310.357 31.9412 311.639 31.2146 313.217 31.2146C314.451 31.2146 315.4 31.5584 316.064 32.2459C316.728 32.9255 317.06 33.9763 317.06 35.3982V43.9412H314.963V36.1013C314.963 35.2576 314.892 34.6521 314.752 34.2849C314.619 33.9099 314.373 33.6091 314.014 33.3826C313.654 33.156 313.232 33.0427 312.748 33.0427C311.873 33.0427 311.146 33.3357 310.568 33.9216C309.99 34.4998 309.701 35.4295 309.701 36.7107V43.9412H307.592V35.8552C307.592 34.9177 307.42 34.2146 307.076 33.7459C306.732 33.2771 306.17 33.0427 305.389 33.0427C304.795 33.0427 304.244 33.199 303.736 33.5115C303.236 33.824 302.873 34.281 302.646 34.8826C302.42 35.4841 302.307 36.3513 302.307 37.4841V43.9412H300.197ZM328.31 42.406C327.529 43.0701 326.775 43.5388 326.049 43.8123C325.33 44.0857 324.557 44.2224 323.728 44.2224C322.361 44.2224 321.31 43.8904 320.576 43.2263C319.842 42.5545 319.474 41.699 319.474 40.6599C319.474 40.0505 319.611 39.4959 319.885 38.9959C320.166 38.488 320.529 38.0818 320.974 37.7771C321.428 37.4724 321.935 37.242 322.498 37.0857C322.912 36.9763 323.537 36.8709 324.373 36.7693C326.076 36.5662 327.33 36.324 328.135 36.0427C328.142 35.7537 328.146 35.5701 328.146 35.492C328.146 34.6326 327.947 34.0271 327.549 33.6755C327.01 33.199 326.209 32.9607 325.146 32.9607C324.154 32.9607 323.42 33.1365 322.943 33.488C322.474 33.8318 322.127 34.4451 321.9 35.3279L319.838 35.0466C320.025 34.1638 320.334 33.4529 320.764 32.9138C321.193 32.367 321.814 31.949 322.627 31.6599C323.439 31.363 324.381 31.2146 325.451 31.2146C326.514 31.2146 327.377 31.3396 328.041 31.5896C328.705 31.8396 329.193 32.156 329.506 32.5388C329.818 32.9138 330.037 33.3904 330.162 33.9685C330.232 34.3279 330.267 34.9763 330.267 35.9138V38.7263C330.267 40.6873 330.31 41.9295 330.396 42.4529C330.49 42.9685 330.67 43.4646 330.935 43.9412H328.732C328.514 43.5037 328.373 42.992 328.31 42.406ZM328.135 37.6951C327.369 38.0076 326.221 38.2732 324.689 38.492C323.822 38.617 323.209 38.7576 322.849 38.9138C322.49 39.0701 322.213 39.3005 322.017 39.6052C321.822 39.9021 321.724 40.2341 321.724 40.6013C321.724 41.1638 321.935 41.6326 322.357 42.0076C322.787 42.3826 323.412 42.5701 324.232 42.5701C325.045 42.5701 325.767 42.3943 326.4 42.0427C327.033 41.6834 327.498 41.1951 327.795 40.5779C328.021 40.1013 328.135 39.3982 328.135 38.4685V37.6951ZM340.474 43.9412V26.7615H342.807L351.83 40.2498V26.7615H354.01V43.9412H351.678L342.654 30.4412V43.9412H340.474ZM365.693 42.406C364.912 43.0701 364.158 43.5388 363.432 43.8123C362.713 44.0857 361.939 44.2224 361.111 44.2224C359.744 44.2224 358.693 43.8904 357.959 43.2263C357.224 42.5545 356.857 41.699 356.857 40.6599C356.857 40.0505 356.994 39.4959 357.267 38.9959C357.549 38.488 357.912 38.0818 358.357 37.7771C358.81 37.4724 359.318 37.242 359.881 37.0857C360.295 36.9763 360.92 36.8709 361.756 36.7693C363.459 36.5662 364.713 36.324 365.517 36.0427C365.525 35.7537 365.529 35.5701 365.529 35.492C365.529 34.6326 365.33 34.0271 364.932 33.6755C364.392 33.199 363.592 32.9607 362.529 32.9607C361.537 32.9607 360.803 33.1365 360.326 33.488C359.857 33.8318 359.51 34.4451 359.283 35.3279L357.221 35.0466C357.408 34.1638 357.717 33.4529 358.146 32.9138C358.576 32.367 359.197 31.949 360.01 31.6599C360.822 31.363 361.764 31.2146 362.834 31.2146C363.896 31.2146 364.76 31.3396 365.424 31.5896C366.088 31.8396 366.576 32.156 366.889 32.5388C367.201 32.9138 367.42 33.3904 367.545 33.9685C367.615 34.3279 367.65 34.9763 367.65 35.9138V38.7263C367.65 40.6873 367.693 41.9295 367.779 42.4529C367.873 42.9685 368.053 43.4646 368.318 43.9412H366.115C365.896 43.5037 365.756 42.992 365.693 42.406ZM365.517 37.6951C364.752 38.0076 363.603 38.2732 362.072 38.492C361.205 38.617 360.592 38.7576 360.232 38.9138C359.873 39.0701 359.596 39.3005 359.4 39.6052C359.205 39.9021 359.107 40.2341 359.107 40.6013C359.107 41.1638 359.318 41.6326 359.74 42.0076C360.17 42.3826 360.795 42.5701 361.615 42.5701C362.428 42.5701 363.15 42.3943 363.783 42.0427C364.416 41.6834 364.881 41.1951 365.178 40.5779C365.404 40.1013 365.517 39.3982 365.517 38.4685V37.6951ZM379.053 39.3826L381.127 39.6521C380.9 41.0818 380.318 42.2029 379.381 43.0154C378.451 43.8201 377.307 44.2224 375.947 44.2224C374.244 44.2224 372.873 43.6677 371.834 42.5584C370.803 41.4412 370.287 39.8435 370.287 37.7654C370.287 36.4216 370.51 35.2459 370.955 34.238C371.4 33.2302 372.076 32.4763 372.982 31.9763C373.896 31.4685 374.889 31.2146 375.959 31.2146C377.31 31.2146 378.416 31.5584 379.275 32.2459C380.135 32.9255 380.685 33.8943 380.928 35.1521L378.877 35.4685C378.682 34.6326 378.334 34.0037 377.834 33.5818C377.342 33.1599 376.744 32.949 376.041 32.949C374.978 32.949 374.115 33.3318 373.451 34.0974C372.787 34.8552 372.455 36.0584 372.455 37.7068C372.455 39.3787 372.775 40.5935 373.416 41.3513C374.057 42.1091 374.892 42.488 375.924 42.488C376.752 42.488 377.443 42.2341 377.998 41.7263C378.553 41.2185 378.904 40.4373 379.053 39.3826ZM382.943 29.1873V26.7615H385.053V29.1873H382.943ZM382.943 43.9412V31.4959H385.053V43.9412H382.943ZM387.49 37.7185C387.49 35.4138 388.131 33.7068 389.412 32.5974C390.482 31.6755 391.787 31.2146 393.326 31.2146C395.037 31.2146 396.435 31.7771 397.521 32.9021C398.607 34.0193 399.15 35.5662 399.15 37.5427C399.15 39.1443 398.908 40.406 398.424 41.3279C397.947 42.242 397.248 42.9529 396.326 43.4607C395.412 43.9685 394.412 44.2224 393.326 44.2224C391.584 44.2224 390.174 43.6638 389.096 42.5466C388.025 41.4295 387.49 39.8201 387.49 37.7185ZM389.658 37.7185C389.658 39.3123 390.006 40.5076 390.701 41.3045C391.396 42.0935 392.271 42.488 393.326 42.488C394.373 42.488 395.244 42.0896 395.939 41.2927C396.635 40.4959 396.982 39.281 396.982 37.6482C396.982 36.1091 396.631 34.9451 395.928 34.156C395.232 33.3591 394.365 32.9607 393.326 32.9607C392.271 32.9607 391.396 33.3552 390.701 34.1443C390.006 34.9334 389.658 36.1248 389.658 37.7185ZM401.635 43.9412V31.4959H403.533V33.2654C404.447 31.8982 405.767 31.2146 407.494 31.2146C408.244 31.2146 408.932 31.3513 409.557 31.6248C410.189 31.8904 410.662 32.242 410.974 32.6795C411.287 33.117 411.506 33.6365 411.631 34.238C411.709 34.6287 411.748 35.3123 411.748 36.2888V43.9412H409.639V36.3709C409.639 35.5115 409.557 34.8709 409.392 34.449C409.228 34.0193 408.935 33.6795 408.514 33.4295C408.099 33.1716 407.611 33.0427 407.049 33.0427C406.15 33.0427 405.373 33.3279 404.717 33.8982C404.068 34.4685 403.744 35.5505 403.744 37.1443V43.9412H401.635ZM423.115 42.406C422.334 43.0701 421.58 43.5388 420.853 43.8123C420.135 44.0857 419.361 44.2224 418.533 44.2224C417.166 44.2224 416.115 43.8904 415.381 43.2263C414.646 42.5545 414.279 41.699 414.279 40.6599C414.279 40.0505 414.416 39.4959 414.689 38.9959C414.971 38.488 415.334 38.0818 415.779 37.7771C416.232 37.4724 416.74 37.242 417.303 37.0857C417.717 36.9763 418.342 36.8709 419.178 36.7693C420.881 36.5662 422.135 36.324 422.939 36.0427C422.947 35.7537 422.951 35.5701 422.951 35.492C422.951 34.6326 422.752 34.0271 422.353 33.6755C421.814 33.199 421.014 32.9607 419.951 32.9607C418.959 32.9607 418.224 33.1365 417.748 33.488C417.279 33.8318 416.932 34.4451 416.705 35.3279L414.642 35.0466C414.83 34.1638 415.139 33.4529 415.568 32.9138C415.998 32.367 416.619 31.949 417.432 31.6599C418.244 31.363 419.185 31.2146 420.256 31.2146C421.318 31.2146 422.182 31.3396 422.846 31.5896C423.51 31.8396 423.998 32.156 424.31 32.5388C424.623 32.9138 424.842 33.3904 424.967 33.9685C425.037 34.3279 425.072 34.9763 425.072 35.9138V38.7263C425.072 40.6873 425.115 41.9295 425.201 42.4529C425.295 42.9685 425.474 43.4646 425.74 43.9412H423.537C423.318 43.5037 423.178 42.992 423.115 42.406ZM422.939 37.6951C422.174 38.0076 421.025 38.2732 419.494 38.492C418.627 38.617 418.014 38.7576 417.654 38.9138C417.295 39.0701 417.017 39.3005 416.822 39.6052C416.627 39.9021 416.529 40.2341 416.529 40.6013C416.529 41.1638 416.74 41.6326 417.162 42.0076C417.592 42.3826 418.217 42.5701 419.037 42.5701C419.849 42.5701 420.572 42.3943 421.205 42.0427C421.838 41.6834 422.303 41.1951 422.599 40.5779C422.826 40.1013 422.939 39.3982 422.939 38.4685V37.6951ZM428.307 43.9412V26.7615H430.416V43.9412H428.307ZM448.451 43.9412V42.3709C447.662 43.6052 446.502 44.2224 444.971 44.2224C443.978 44.2224 443.064 43.949 442.228 43.4021C441.4 42.8552 440.756 42.0935 440.295 41.117C439.842 40.1326 439.615 39.0037 439.615 37.7302C439.615 36.488 439.822 35.363 440.236 34.3552C440.65 33.3396 441.271 32.5623 442.099 32.0232C442.928 31.4841 443.853 31.2146 444.877 31.2146C445.627 31.2146 446.295 31.3748 446.881 31.6951C447.467 32.0076 447.943 32.4177 448.31 32.9255V26.7615H450.408V43.9412H448.451ZM441.783 37.7302C441.783 39.324 442.119 40.5154 442.791 41.3045C443.463 42.0935 444.256 42.488 445.17 42.488C446.092 42.488 446.873 42.113 447.514 41.363C448.162 40.6052 448.486 39.4529 448.486 37.906C448.486 36.2029 448.158 34.9529 447.502 34.156C446.846 33.3591 446.037 32.9607 445.076 32.9607C444.139 32.9607 443.353 33.3435 442.721 34.1091C442.096 34.8748 441.783 36.0818 441.783 37.7302ZM462.256 39.9334L464.435 40.2029C464.092 41.4763 463.455 42.4646 462.525 43.1677C461.596 43.8709 460.408 44.2224 458.963 44.2224C457.142 44.2224 455.697 43.6638 454.627 42.5466C453.564 41.4216 453.033 39.8474 453.033 37.824C453.033 35.7302 453.572 34.1052 454.65 32.949C455.728 31.7927 457.127 31.2146 458.846 31.2146C460.51 31.2146 461.869 31.781 462.924 32.9138C463.978 34.0466 464.506 35.6404 464.506 37.6951C464.506 37.8201 464.502 38.0076 464.494 38.2576H455.213C455.291 39.6248 455.678 40.6716 456.373 41.3982C457.068 42.1248 457.935 42.488 458.974 42.488C459.748 42.488 460.408 42.2849 460.955 41.8787C461.502 41.4724 461.935 40.824 462.256 39.9334ZM455.33 36.5232H462.279C462.185 35.4763 461.92 34.6912 461.482 34.1677C460.81 33.3552 459.939 32.949 458.869 32.949C457.9 32.949 457.084 33.2732 456.42 33.9216C455.764 34.5701 455.4 35.4373 455.33 36.5232ZM474.045 43.9412V26.7615H479.963C481.299 26.7615 482.318 26.8435 483.021 27.0076C484.006 27.2341 484.846 27.6443 485.541 28.238C486.447 29.0037 487.123 29.9841 487.568 31.1795C488.021 32.367 488.248 33.7263 488.248 35.2576C488.248 36.5623 488.096 37.7185 487.791 38.7263C487.486 39.7341 487.096 40.5701 486.619 41.2341C486.142 41.8904 485.619 42.4099 485.049 42.7927C484.486 43.1677 483.803 43.4529 482.998 43.6482C482.201 43.8435 481.283 43.9412 480.244 43.9412H474.045ZM476.318 41.9138H479.986C481.119 41.9138 482.006 41.8084 482.646 41.5974C483.295 41.3865 483.81 41.0896 484.193 40.7068C484.732 40.1677 485.15 39.4451 485.447 38.5388C485.752 37.6248 485.904 36.5193 485.904 35.2224C485.904 33.4255 485.607 32.0466 485.014 31.0857C484.428 30.117 483.713 29.4685 482.869 29.1404C482.26 28.906 481.279 28.7888 479.928 28.7888H476.318V41.9138ZM499.24 42.406C498.459 43.0701 497.705 43.5388 496.978 43.8123C496.26 44.0857 495.486 44.2224 494.658 44.2224C493.291 44.2224 492.24 43.8904 491.506 43.2263C490.771 42.5545 490.404 41.699 490.404 40.6599C490.404 40.0505 490.541 39.4959 490.814 38.9959C491.096 38.488 491.459 38.0818 491.904 37.7771C492.357 37.4724 492.865 37.242 493.428 37.0857C493.842 36.9763 494.467 36.8709 495.303 36.7693C497.006 36.5662 498.26 36.324 499.064 36.0427C499.072 35.7537 499.076 35.5701 499.076 35.492C499.076 34.6326 498.877 34.0271 498.478 33.6755C497.939 33.199 497.139 32.9607 496.076 32.9607C495.084 32.9607 494.349 33.1365 493.873 33.488C493.404 33.8318 493.057 34.4451 492.83 35.3279L490.767 35.0466C490.955 34.1638 491.264 33.4529 491.693 32.9138C492.123 32.367 492.744 31.949 493.557 31.6599C494.369 31.363 495.31 31.2146 496.381 31.2146C497.443 31.2146 498.307 31.3396 498.971 31.5896C499.635 31.8396 500.123 32.156 500.435 32.5388C500.748 32.9138 500.967 33.3904 501.092 33.9685C501.162 34.3279 501.197 34.9763 501.197 35.9138V38.7263C501.197 40.6873 501.24 41.9295 501.326 42.4529C501.42 42.9685 501.599 43.4646 501.865 43.9412H499.662C499.443 43.5037 499.303 42.992 499.24 42.406ZM499.064 37.6951C498.299 38.0076 497.15 38.2732 495.619 38.492C494.752 38.617 494.139 38.7576 493.779 38.9138C493.42 39.0701 493.142 39.3005 492.947 39.6052C492.752 39.9021 492.654 40.2341 492.654 40.6013C492.654 41.1638 492.865 41.6326 493.287 42.0076C493.717 42.3826 494.342 42.5701 495.162 42.5701C495.974 42.5701 496.697 42.3943 497.33 42.0427C497.963 41.6834 498.428 41.1951 498.724 40.5779C498.951 40.1013 499.064 39.3982 499.064 38.4685V37.6951ZM509.084 42.0545L509.389 43.9177C508.795 44.0427 508.264 44.1052 507.795 44.1052C507.029 44.1052 506.435 43.9841 506.014 43.742C505.592 43.4998 505.295 43.1834 505.123 42.7927C504.951 42.3943 504.865 41.5623 504.865 40.2966V33.1365H503.318V31.4959H504.865V28.4138L506.963 27.1482V31.4959H509.084V33.1365H506.963V40.4138C506.963 41.0154 506.998 41.4021 507.068 41.574C507.146 41.7459 507.267 41.8826 507.432 41.9841C507.603 42.0857 507.846 42.1365 508.158 42.1365C508.392 42.1365 508.701 42.1091 509.084 42.0545ZM510.373 37.7185C510.373 35.4138 511.014 33.7068 512.295 32.5974C513.365 31.6755 514.67 31.2146 516.209 31.2146C517.92 31.2146 519.318 31.7771 520.404 32.9021C521.49 34.0193 522.033 35.5662 522.033 37.5427C522.033 39.1443 521.791 40.406 521.307 41.3279C520.83 42.242 520.131 42.9529 519.209 43.4607C518.295 43.9685 517.295 44.2224 516.209 44.2224C514.467 44.2224 513.057 43.6638 511.978 42.5466C510.908 41.4295 510.373 39.8201 510.373 37.7185ZM512.541 37.7185C512.541 39.3123 512.889 40.5076 513.584 41.3045C514.279 42.0935 515.154 42.488 516.209 42.488C517.256 42.488 518.127 42.0896 518.822 41.2927C519.517 40.4959 519.865 39.281 519.865 37.6482C519.865 36.1091 519.514 34.9451 518.81 34.156C518.115 33.3591 517.248 32.9607 516.209 32.9607C515.154 32.9607 514.279 33.3552 513.584 34.1443C512.889 34.9334 512.541 36.1248 512.541 37.7185ZM523.674 40.2263L525.76 39.8982C525.877 40.7341 526.201 41.3748 526.732 41.8201C527.271 42.2654 528.021 42.488 528.982 42.488C529.951 42.488 530.67 42.2927 531.139 41.9021C531.607 41.5037 531.842 41.0388 531.842 40.5076C531.842 40.031 531.635 39.656 531.221 39.3826C530.932 39.1951 530.213 38.9568 529.064 38.6677C527.517 38.2771 526.443 37.9412 525.842 37.6599C525.248 37.3709 524.795 36.9763 524.482 36.4763C524.178 35.9685 524.025 35.4099 524.025 34.8005C524.025 34.2459 524.15 33.7341 524.4 33.2654C524.658 32.7888 525.006 32.3943 525.443 32.0818C525.771 31.8396 526.217 31.6365 526.779 31.4724C527.349 31.3005 527.959 31.2146 528.607 31.2146C529.584 31.2146 530.439 31.3552 531.174 31.6365C531.916 31.9177 532.463 32.3005 532.814 32.7849C533.166 33.2615 533.408 33.9021 533.541 34.7068L531.478 34.988C531.385 34.3474 531.111 33.8474 530.658 33.488C530.213 33.1287 529.58 32.949 528.76 32.949C527.791 32.949 527.099 33.1091 526.685 33.4295C526.271 33.7498 526.064 34.1248 526.064 34.5545C526.064 34.8279 526.15 35.074 526.322 35.2927C526.494 35.5193 526.764 35.7068 527.131 35.8552C527.342 35.9334 527.963 36.113 528.994 36.3943C530.486 36.7927 531.525 37.1209 532.111 37.3787C532.705 37.6287 533.17 37.9959 533.506 38.4802C533.842 38.9646 534.01 39.5662 534.01 40.2849C534.01 40.988 533.803 41.6521 533.389 42.2771C532.982 42.8943 532.392 43.3748 531.619 43.7185C530.846 44.0545 529.971 44.2224 528.994 44.2224C527.377 44.2224 526.142 43.8865 525.291 43.2146C524.447 42.5427 523.908 41.5466 523.674 40.2263ZM551.506 37.2029V35.1873L558.783 35.1755V41.5505C557.666 42.4412 556.514 43.113 555.326 43.5662C554.139 44.0115 552.92 44.2341 551.67 44.2341C549.982 44.2341 548.447 43.8748 547.064 43.156C545.689 42.4295 544.65 41.3826 543.947 40.0154C543.244 38.6482 542.892 37.1209 542.892 35.4334C542.892 33.7615 543.24 32.2029 543.935 30.7576C544.639 29.3045 545.646 28.2263 546.959 27.5232C548.271 26.8201 549.783 26.4685 551.494 26.4685C552.736 26.4685 553.857 26.6716 554.857 27.0779C555.865 27.4763 556.654 28.0349 557.224 28.7537C557.795 29.4724 558.228 30.4099 558.525 31.5662L556.474 32.1287C556.217 31.2537 555.896 30.5662 555.514 30.0662C555.131 29.5662 554.584 29.1677 553.873 28.8709C553.162 28.5662 552.373 28.4138 551.506 28.4138C550.467 28.4138 549.568 28.574 548.81 28.8943C548.053 29.2068 547.439 29.6209 546.971 30.1365C546.51 30.6521 546.15 31.2185 545.892 31.8357C545.455 32.8982 545.236 34.0505 545.236 35.2927C545.236 36.824 545.498 38.1052 546.021 39.1365C546.553 40.1677 547.322 40.9334 548.33 41.4334C549.338 41.9334 550.408 42.1834 551.541 42.1834C552.525 42.1834 553.486 41.9959 554.424 41.6209C555.361 41.238 556.072 40.8318 556.557 40.4021V37.2029H551.506ZM570.396 39.9334L572.576 40.2029C572.232 41.4763 571.596 42.4646 570.666 43.1677C569.736 43.8709 568.549 44.2224 567.103 44.2224C565.283 44.2224 563.838 43.6638 562.767 42.5466C561.705 41.4216 561.174 39.8474 561.174 37.824C561.174 35.7302 561.713 34.1052 562.791 32.949C563.869 31.7927 565.267 31.2146 566.986 31.2146C568.65 31.2146 570.01 31.781 571.064 32.9138C572.119 34.0466 572.646 35.6404 572.646 37.6951C572.646 37.8201 572.642 38.0076 572.635 38.2576H563.353C563.432 39.6248 563.818 40.6716 564.514 41.3982C565.209 42.1248 566.076 42.488 567.115 42.488C567.889 42.488 568.549 42.2849 569.096 41.8787C569.642 41.4724 570.076 40.824 570.396 39.9334ZM563.471 36.5232H570.42C570.326 35.4763 570.06 34.6912 569.623 34.1677C568.951 33.3552 568.08 32.949 567.01 32.949C566.041 32.949 565.224 33.2732 564.56 33.9216C563.904 34.5701 563.541 35.4373 563.471 36.5232ZM574.451 37.7185C574.451 35.4138 575.092 33.7068 576.373 32.5974C577.443 31.6755 578.748 31.2146 580.287 31.2146C581.998 31.2146 583.396 31.7771 584.482 32.9021C585.568 34.0193 586.111 35.5662 586.111 37.5427C586.111 39.1443 585.869 40.406 585.385 41.3279C584.908 42.242 584.209 42.9529 583.287 43.4607C582.373 43.9685 581.373 44.2224 580.287 44.2224C578.545 44.2224 577.135 43.6638 576.057 42.5466C574.986 41.4295 574.451 39.8201 574.451 37.7185ZM576.619 37.7185C576.619 39.3123 576.967 40.5076 577.662 41.3045C578.357 42.0935 579.232 42.488 580.287 42.488C581.334 42.488 582.205 42.0896 582.9 41.2927C583.596 40.4959 583.943 39.281 583.943 37.6482C583.943 36.1091 583.592 34.9451 582.889 34.156C582.193 33.3591 581.326 32.9607 580.287 32.9607C579.232 32.9607 578.357 33.3552 577.662 34.1443C576.967 34.9334 576.619 36.1248 576.619 37.7185ZM588.572 43.9412V31.4959H590.471V33.3826C590.955 32.4998 591.4 31.9177 591.807 31.6365C592.221 31.3552 592.674 31.2146 593.166 31.2146C593.877 31.2146 594.599 31.4412 595.334 31.8943L594.607 33.8513C594.092 33.5466 593.576 33.3943 593.06 33.3943C592.599 33.3943 592.185 33.5349 591.818 33.8162C591.451 34.0896 591.189 34.4724 591.033 34.9646C590.799 35.7146 590.682 36.5349 590.682 37.4255V43.9412H588.572ZM596.564 43.9412V31.4959H598.463V33.3826C598.947 32.4998 599.392 31.9177 599.799 31.6365C600.213 31.3552 600.666 31.2146 601.158 31.2146C601.869 31.2146 602.592 31.4412 603.326 31.8943L602.599 33.8513C602.084 33.5466 601.568 33.3943 601.053 33.3943C600.592 33.3943 600.178 33.5349 599.81 33.8162C599.443 34.0896 599.182 34.4724 599.025 34.9646C598.791 35.7146 598.674 36.5349 598.674 37.4255V43.9412H596.564ZM613.099 39.9334L615.279 40.2029C614.935 41.4763 614.299 42.4646 613.369 43.1677C612.439 43.8709 611.252 44.2224 609.807 44.2224C607.986 44.2224 606.541 43.6638 605.471 42.5466C604.408 41.4216 603.877 39.8474 603.877 37.824C603.877 35.7302 604.416 34.1052 605.494 32.949C606.572 31.7927 607.971 31.2146 609.689 31.2146C611.353 31.2146 612.713 31.781 613.767 32.9138C614.822 34.0466 615.349 35.6404 615.349 37.6951C615.349 37.8201 615.346 38.0076 615.338 38.2576H606.057C606.135 39.6248 606.521 40.6716 607.217 41.3982C607.912 42.1248 608.779 42.488 609.818 42.488C610.592 42.488 611.252 42.2849 611.799 41.8787C612.346 41.4724 612.779 40.824 613.099 39.9334ZM606.174 36.5232H613.123C613.029 35.4763 612.764 34.6912 612.326 34.1677C611.654 33.3552 610.783 32.949 609.713 32.949C608.744 32.949 607.928 33.2732 607.264 33.9216C606.607 34.5701 606.244 35.4373 606.174 36.5232ZM618.443 43.9412V33.1365H616.58V31.4959H618.443V30.1716C618.443 29.3357 618.517 28.7146 618.666 28.3084C618.869 27.7615 619.224 27.3201 619.732 26.9841C620.248 26.6404 620.967 26.4685 621.889 26.4685C622.482 26.4685 623.139 26.5388 623.857 26.6795L623.541 28.5193C623.103 28.4412 622.689 28.4021 622.299 28.4021C621.658 28.4021 621.205 28.5388 620.939 28.8123C620.674 29.0857 620.541 29.5974 620.541 30.3474V31.4959H622.967V33.1365H620.541V43.9412H618.443ZM633.139 39.9334L635.318 40.2029C634.974 41.4763 634.338 42.4646 633.408 43.1677C632.478 43.8709 631.291 44.2224 629.846 44.2224C628.025 44.2224 626.58 43.6638 625.51 42.5466C624.447 41.4216 623.916 39.8474 623.916 37.824C623.916 35.7302 624.455 34.1052 625.533 32.949C626.611 31.7927 628.01 31.2146 629.728 31.2146C631.392 31.2146 632.752 31.781 633.807 32.9138C634.861 34.0466 635.389 35.6404 635.389 37.6951C635.389 37.8201 635.385 38.0076 635.377 38.2576H626.096C626.174 39.6248 626.56 40.6716 627.256 41.3982C627.951 42.1248 628.818 42.488 629.857 42.488C630.631 42.488 631.291 42.2849 631.838 41.8787C632.385 41.4724 632.818 40.824 633.139 39.9334ZM626.213 36.5232H633.162C633.068 35.4763 632.803 34.6912 632.365 34.1677C631.693 33.3552 630.822 32.949 629.752 32.949C628.783 32.949 627.967 33.2732 627.303 33.9216C626.646 34.5701 626.283 35.4373 626.213 36.5232ZM637.955 43.9412V31.4959H639.853V33.3826C640.338 32.4998 640.783 31.9177 641.189 31.6365C641.603 31.3552 642.057 31.2146 642.549 31.2146C643.26 31.2146 643.982 31.4412 644.717 31.8943L643.99 33.8513C643.474 33.5466 642.959 33.3943 642.443 33.3943C641.982 33.3943 641.568 33.5349 641.201 33.8162C640.834 34.0896 640.572 34.4724 640.416 34.9646C640.182 35.7146 640.064 36.5349 640.064 37.4255V43.9412H637.955ZM654.49 39.9334L656.67 40.2029C656.326 41.4763 655.689 42.4646 654.76 43.1677C653.83 43.8709 652.642 44.2224 651.197 44.2224C649.377 44.2224 647.932 43.6638 646.861 42.5466C645.799 41.4216 645.267 39.8474 645.267 37.824C645.267 35.7302 645.807 34.1052 646.885 32.949C647.963 31.7927 649.361 31.2146 651.08 31.2146C652.744 31.2146 654.103 31.781 655.158 32.9138C656.213 34.0466 656.74 35.6404 656.74 37.6951C656.74 37.8201 656.736 38.0076 656.728 38.2576H647.447C647.525 39.6248 647.912 40.6716 648.607 41.3982C649.303 42.1248 650.17 42.488 651.209 42.488C651.982 42.488 652.642 42.2849 653.189 41.8787C653.736 41.4724 654.17 40.824 654.49 39.9334ZM647.564 36.5232H654.514C654.42 35.4763 654.154 34.6912 653.717 34.1677C653.045 33.3552 652.174 32.949 651.103 32.949C650.135 32.949 649.318 33.2732 648.654 33.9216C647.998 34.5701 647.635 35.4373 647.564 36.5232ZM659.33 43.9412V31.4959H661.228V33.2654C662.142 31.8982 663.463 31.2146 665.189 31.2146C665.939 31.2146 666.627 31.3513 667.252 31.6248C667.885 31.8904 668.357 32.242 668.67 32.6795C668.982 33.117 669.201 33.6365 669.326 34.238C669.404 34.6287 669.443 35.3123 669.443 36.2888V43.9412H667.334V36.3709C667.334 35.5115 667.252 34.8709 667.088 34.449C666.924 34.0193 666.631 33.6795 666.209 33.4295C665.795 33.1716 665.307 33.0427 664.744 33.0427C663.846 33.0427 663.068 33.3279 662.412 33.8982C661.764 34.4685 661.439 35.5505 661.439 37.1443V43.9412H659.33ZM680.81 39.3826L682.885 39.6521C682.658 41.0818 682.076 42.2029 681.139 43.0154C680.209 43.8201 679.064 44.2224 677.705 44.2224C676.002 44.2224 674.631 43.6677 673.592 42.5584C672.56 41.4412 672.045 39.8435 672.045 37.7654C672.045 36.4216 672.267 35.2459 672.713 34.238C673.158 33.2302 673.834 32.4763 674.74 31.9763C675.654 31.4685 676.646 31.2146 677.717 31.2146C679.068 31.2146 680.174 31.5584 681.033 32.2459C681.892 32.9255 682.443 33.8943 682.685 35.1521L680.635 35.4685C680.439 34.6326 680.092 34.0037 679.592 33.5818C679.099 33.1599 678.502 32.949 677.799 32.949C676.736 32.949 675.873 33.3318 675.209 34.0974C674.545 34.8552 674.213 36.0584 674.213 37.7068C674.213 39.3787 674.533 40.5935 675.174 41.3513C675.814 42.1091 676.65 42.488 677.682 42.488C678.51 42.488 679.201 42.2341 679.756 41.7263C680.31 41.2185 680.662 40.4373 680.81 39.3826ZM684.701 29.1873V26.7615H686.81V29.1873H684.701ZM684.701 43.9412V31.4959H686.81V43.9412H684.701ZM698.154 42.406C697.373 43.0701 696.619 43.5388 695.892 43.8123C695.174 44.0857 694.4 44.2224 693.572 44.2224C692.205 44.2224 691.154 43.8904 690.42 43.2263C689.685 42.5545 689.318 41.699 689.318 40.6599C689.318 40.0505 689.455 39.4959 689.728 38.9959C690.01 38.488 690.373 38.0818 690.818 37.7771C691.271 37.4724 691.779 37.242 692.342 37.0857C692.756 36.9763 693.381 36.8709 694.217 36.7693C695.92 36.5662 697.174 36.324 697.978 36.0427C697.986 35.7537 697.99 35.5701 697.99 35.492C697.99 34.6326 697.791 34.0271 697.392 33.6755C696.853 33.199 696.053 32.9607 694.99 32.9607C693.998 32.9607 693.264 33.1365 692.787 33.488C692.318 33.8318 691.971 34.4451 691.744 35.3279L689.682 35.0466C689.869 34.1638 690.178 33.4529 690.607 32.9138C691.037 32.367 691.658 31.949 692.471 31.6599C693.283 31.363 694.224 31.2146 695.295 31.2146C696.357 31.2146 697.221 31.3396 697.885 31.5896C698.549 31.8396 699.037 32.156 699.349 32.5388C699.662 32.9138 699.881 33.3904 700.006 33.9685C700.076 34.3279 700.111 34.9763 700.111 35.9138V38.7263C700.111 40.6873 700.154 41.9295 700.24 42.4529C700.334 42.9685 700.514 43.4646 700.779 43.9412H698.576C698.357 43.5037 698.217 42.992 698.154 42.406ZM697.978 37.6951C697.213 38.0076 696.064 38.2732 694.533 38.492C693.666 38.617 693.053 38.7576 692.693 38.9138C692.334 39.0701 692.057 39.3005 691.861 39.6052C691.666 39.9021 691.568 40.2341 691.568 40.6013C691.568 41.1638 691.779 41.6326 692.201 42.0076C692.631 42.3826 693.256 42.5701 694.076 42.5701C694.889 42.5701 695.611 42.3943 696.244 42.0427C696.877 41.6834 697.342 41.1951 697.639 40.5779C697.865 40.1013 697.978 39.3982 697.978 38.4685V37.6951ZM711.467 43.9412V42.3709C710.678 43.6052 709.517 44.2224 707.986 44.2224C706.994 44.2224 706.08 43.949 705.244 43.4021C704.416 42.8552 703.771 42.0935 703.31 41.117C702.857 40.1326 702.631 39.0037 702.631 37.7302C702.631 36.488 702.838 35.363 703.252 34.3552C703.666 33.3396 704.287 32.5623 705.115 32.0232C705.943 31.4841 706.869 31.2146 707.892 31.2146C708.642 31.2146 709.31 31.3748 709.896 31.6951C710.482 32.0076 710.959 32.4177 711.326 32.9255V26.7615H713.424V43.9412H711.467ZM704.799 37.7302C704.799 39.324 705.135 40.5154 705.807 41.3045C706.478 42.0935 707.271 42.488 708.185 42.488C709.107 42.488 709.889 42.113 710.529 41.363C711.178 40.6052 711.502 39.4529 711.502 37.906C711.502 36.2029 711.174 34.9529 710.517 34.156C709.861 33.3591 709.053 32.9607 708.092 32.9607C707.154 32.9607 706.369 33.3435 705.736 34.1091C705.111 34.8748 704.799 36.0818 704.799 37.7302ZM715.967 37.7185C715.967 35.4138 716.607 33.7068 717.889 32.5974C718.959 31.6755 720.264 31.2146 721.803 31.2146C723.514 31.2146 724.912 31.7771 725.998 32.9021C727.084 34.0193 727.627 35.5662 727.627 37.5427C727.627 39.1443 727.385 40.406 726.9 41.3279C726.424 42.242 725.724 42.9529 724.803 43.4607C723.889 43.9685 722.889 44.2224 721.803 44.2224C720.06 44.2224 718.65 43.6638 717.572 42.5466C716.502 41.4295 715.967 39.8201 715.967 37.7185ZM718.135 37.7185C718.135 39.3123 718.482 40.5076 719.178 41.3045C719.873 42.0935 720.748 42.488 721.803 42.488C722.849 42.488 723.721 42.0896 724.416 41.2927C725.111 40.4959 725.459 39.281 725.459 37.6482C725.459 36.1091 725.107 34.9451 724.404 34.156C723.709 33.3591 722.842 32.9607 721.803 32.9607C720.748 32.9607 719.873 33.3552 719.178 34.1443C718.482 34.9334 718.135 36.1248 718.135 37.7185ZM729.267 40.2263L731.353 39.8982C731.471 40.7341 731.795 41.3748 732.326 41.8201C732.865 42.2654 733.615 42.488 734.576 42.488C735.545 42.488 736.264 42.2927 736.732 41.9021C737.201 41.5037 737.435 41.0388 737.435 40.5076C737.435 40.031 737.228 39.656 736.814 39.3826C736.525 39.1951 735.807 38.9568 734.658 38.6677C733.111 38.2771 732.037 37.9412 731.435 37.6599C730.842 37.3709 730.389 36.9763 730.076 36.4763C729.771 35.9685 729.619 35.4099 729.619 34.8005C729.619 34.2459 729.744 33.7341 729.994 33.2654C730.252 32.7888 730.599 32.3943 731.037 32.0818C731.365 31.8396 731.81 31.6365 732.373 31.4724C732.943 31.3005 733.553 31.2146 734.201 31.2146C735.178 31.2146 736.033 31.3552 736.767 31.6365C737.51 31.9177 738.057 32.3005 738.408 32.7849C738.76 33.2615 739.002 33.9021 739.135 34.7068L737.072 34.988C736.978 34.3474 736.705 33.8474 736.252 33.488C735.807 33.1287 735.174 32.949 734.353 32.949C733.385 32.949 732.693 33.1091 732.279 33.4295C731.865 33.7498 731.658 34.1248 731.658 34.5545C731.658 34.8279 731.744 35.074 731.916 35.2927C732.088 35.5193 732.357 35.7068 732.724 35.8552C732.935 35.9334 733.557 36.113 734.588 36.3943C736.08 36.7927 737.119 37.1209 737.705 37.3787C738.299 37.6287 738.764 37.9959 739.099 38.4802C739.435 38.9646 739.603 39.5662 739.603 40.2849C739.603 40.988 739.396 41.6521 738.982 42.2771C738.576 42.8943 737.986 43.3748 737.213 43.7185C736.439 44.0545 735.564 44.2224 734.588 44.2224C732.971 44.2224 731.736 43.8865 730.885 43.2146C730.041 42.5427 729.502 41.5466 729.267 40.2263ZM757.099 37.2029V35.1873L764.377 35.1755V41.5505C763.26 42.4412 762.107 43.113 760.92 43.5662C759.732 44.0115 758.514 44.2341 757.264 44.2341C755.576 44.2341 754.041 43.8748 752.658 43.156C751.283 42.4295 750.244 41.3826 749.541 40.0154C748.838 38.6482 748.486 37.1209 748.486 35.4334C748.486 33.7615 748.834 32.2029 749.529 30.7576C750.232 29.3045 751.24 28.2263 752.553 27.5232C753.865 26.8201 755.377 26.4685 757.088 26.4685C758.33 26.4685 759.451 26.6716 760.451 27.0779C761.459 27.4763 762.248 28.0349 762.818 28.7537C763.389 29.4724 763.822 30.4099 764.119 31.5662L762.068 32.1287C761.81 31.2537 761.49 30.5662 761.107 30.0662C760.724 29.5662 760.178 29.1677 759.467 28.8709C758.756 28.5662 757.967 28.4138 757.099 28.4138C756.06 28.4138 755.162 28.574 754.404 28.8943C753.646 29.2068 753.033 29.6209 752.564 30.1365C752.103 30.6521 751.744 31.2185 751.486 31.8357C751.049 32.8982 750.83 34.0505 750.83 35.2927C750.83 36.824 751.092 38.1052 751.615 39.1365C752.146 40.1677 752.916 40.9334 753.924 41.4334C754.932 41.9334 756.002 42.1834 757.135 42.1834C758.119 42.1834 759.08 41.9959 760.017 41.6209C760.955 41.238 761.666 40.8318 762.15 40.4021V37.2029H757.099ZM775.99 39.9334L778.17 40.2029C777.826 41.4763 777.189 42.4646 776.26 43.1677C775.33 43.8709 774.142 44.2224 772.697 44.2224C770.877 44.2224 769.432 43.6638 768.361 42.5466C767.299 41.4216 766.767 39.8474 766.767 37.824C766.767 35.7302 767.307 34.1052 768.385 32.949C769.463 31.7927 770.861 31.2146 772.58 31.2146C774.244 31.2146 775.603 31.781 776.658 32.9138C777.713 34.0466 778.24 35.6404 778.24 37.6951C778.24 37.8201 778.236 38.0076 778.228 38.2576H768.947C769.025 39.6248 769.412 40.6716 770.107 41.3982C770.803 42.1248 771.67 42.488 772.709 42.488C773.482 42.488 774.142 42.2849 774.689 41.8787C775.236 41.4724 775.67 40.824 775.99 39.9334ZM769.064 36.5232H776.014C775.92 35.4763 775.654 34.6912 775.217 34.1677C774.545 33.3552 773.674 32.949 772.603 32.949C771.635 32.949 770.818 33.2732 770.154 33.9216C769.498 34.5701 769.135 35.4373 769.064 36.5232ZM780.045 37.7185C780.045 35.4138 780.685 33.7068 781.967 32.5974C783.037 31.6755 784.342 31.2146 785.881 31.2146C787.592 31.2146 788.99 31.7771 790.076 32.9021C791.162 34.0193 791.705 35.5662 791.705 37.5427C791.705 39.1443 791.463 40.406 790.978 41.3279C790.502 42.242 789.803 42.9529 788.881 43.4607C787.967 43.9685 786.967 44.2224 785.881 44.2224C784.139 44.2224 782.728 43.6638 781.65 42.5466C780.58 41.4295 780.045 39.8201 780.045 37.7185ZM782.213 37.7185C782.213 39.3123 782.56 40.5076 783.256 41.3045C783.951 42.0935 784.826 42.488 785.881 42.488C786.928 42.488 787.799 42.0896 788.494 41.2927C789.189 40.4959 789.537 39.281 789.537 37.6482C789.537 36.1091 789.185 34.9451 788.482 34.156C787.787 33.3591 786.92 32.9607 785.881 32.9607C784.826 32.9607 783.951 33.3552 783.256 34.1443C782.56 34.9334 782.213 36.1248 782.213 37.7185ZM801.139 43.9412V26.7615H807.619C808.76 26.7615 809.631 26.8162 810.232 26.9255C811.076 27.0662 811.783 27.3357 812.353 27.7341C812.924 28.1248 813.381 28.6755 813.724 29.3865C814.076 30.0974 814.252 30.8787 814.252 31.7302C814.252 33.1912 813.787 34.4295 812.857 35.4451C811.928 36.4529 810.248 36.9568 807.818 36.9568H803.412V43.9412H801.139ZM803.412 34.9295H807.853C809.322 34.9295 810.365 34.656 810.982 34.1091C811.599 33.5623 811.908 32.7927 811.908 31.8005C811.908 31.0818 811.724 30.4685 811.357 29.9607C810.998 29.4451 810.521 29.1052 809.928 28.9412C809.545 28.8396 808.838 28.7888 807.807 28.7888H803.412V34.9295ZM825.396 39.9334L827.576 40.2029C827.232 41.4763 826.596 42.4646 825.666 43.1677C824.736 43.8709 823.549 44.2224 822.103 44.2224C820.283 44.2224 818.838 43.6638 817.767 42.5466C816.705 41.4216 816.174 39.8474 816.174 37.824C816.174 35.7302 816.713 34.1052 817.791 32.949C818.869 31.7927 820.267 31.2146 821.986 31.2146C823.65 31.2146 825.01 31.781 826.064 32.9138C827.119 34.0466 827.646 35.6404 827.646 37.6951C827.646 37.8201 827.642 38.0076 827.635 38.2576H818.353C818.432 39.6248 818.818 40.6716 819.514 41.3982C820.209 42.1248 821.076 42.488 822.115 42.488C822.889 42.488 823.549 42.2849 824.096 41.8787C824.642 41.4724 825.076 40.824 825.396 39.9334ZM818.471 36.5232H825.42C825.326 35.4763 825.06 34.6912 824.623 34.1677C823.951 33.3552 823.08 32.949 822.01 32.949C821.041 32.949 820.224 33.2732 819.56 33.9216C818.904 34.5701 818.541 35.4373 818.471 36.5232ZM830.213 43.9412V31.4959H832.111V33.3826C832.596 32.4998 833.041 31.9177 833.447 31.6365C833.861 31.3552 834.314 31.2146 834.807 31.2146C835.517 31.2146 836.24 31.4412 836.974 31.8943L836.248 33.8513C835.732 33.5466 835.217 33.3943 834.701 33.3943C834.24 33.3943 833.826 33.5349 833.459 33.8162C833.092 34.0896 832.83 34.4724 832.674 34.9646C832.439 35.7146 832.322 36.5349 832.322 37.4255V43.9412H830.213ZM846.385 43.9412V42.113C845.416 43.5193 844.099 44.2224 842.435 44.2224C841.701 44.2224 841.014 44.0818 840.373 43.8005C839.74 43.5193 839.267 43.1677 838.955 42.7459C838.65 42.3162 838.435 41.7927 838.31 41.1755C838.224 40.7615 838.182 40.1052 838.182 39.2068V31.4959H840.291V38.3982C840.291 39.4998 840.334 40.242 840.42 40.6248C840.553 41.1795 840.834 41.617 841.264 41.9373C841.693 42.2498 842.224 42.406 842.857 42.406C843.49 42.406 844.084 42.2459 844.639 41.9255C845.193 41.5974 845.584 41.156 845.81 40.6013C846.045 40.0388 846.162 39.2263 846.162 38.1638V31.4959H848.271V43.9412H846.385ZM841.955 29.949L843.514 26.6677H846.279L843.701 29.949H841.955Z" fill="#BF0909"/>
<rect x="197.776" y="6.00002" width="0.859894" height="60" fill="#BF0909"/>
<path d="M57.1961 53.9591C57.3244 53.9591 57.4099 53.9591 57.4099 53.9591C57.4099 53.9591 57.4099 53.9591 57.4527 53.9591C57.5382 53.9591 59.3771 53.7104 60.4035 52.3179C61.6865 50.5772 62.2424 47.5932 61.0878 46.1509C60.489 45.4547 59.8048 45.1563 59.1205 45.3055C58.4363 45.4547 57.8376 46.0515 57.581 46.8472C57.5382 46.9964 57.581 47.1953 57.7093 47.3445C57.8376 47.444 58.0086 47.444 58.1369 47.2948C58.4363 46.9964 58.7356 46.8472 58.9495 46.9467C59.1633 46.9964 59.3344 47.2451 59.4199 47.5932C59.5054 47.8916 59.4627 48.3392 59.2916 48.6376C59.2488 48.7371 59.1205 48.8863 58.9495 48.936C58.4363 48.9857 57.6665 48.2895 56.8967 47.4937C56.1269 46.7477 55.2289 45.8525 54.2025 45.4049C52.834 44.7584 49.1134 43.8135 46.4619 46.1012H46.4191C46.3336 46.1509 44.8368 47.4937 44.4947 48.936C43.9387 50.2788 43.8959 51.5222 44.2808 52.666C43.9387 52.9644 43.7676 53.3623 43.7676 53.7602C43.7676 54.6554 44.6657 55.4014 45.8204 55.5008C45.6921 55.6998 45.6493 55.9485 45.6493 56.1971C45.6493 57.1421 46.6329 57.9378 47.9159 57.9378C48.8568 57.9378 49.6265 57.5399 49.9687 56.9431C50.3108 57.5399 51.0806 57.9378 52.0214 57.9378C53.3044 57.9378 54.288 57.1918 54.288 56.1971C54.288 55.9485 54.2025 55.6998 54.1169 55.5008C54.844 55.4511 55.5282 55.1527 55.8703 54.6554C55.9131 54.6554 55.9986 54.6056 56.0414 54.5559C56.2552 54.2575 56.7684 54.0586 57.1961 53.9591ZM59.035 52.5666C58.6929 52.7655 58.3507 52.9147 58.0942 53.0142H58.0514C58.2652 51.1243 57.3244 49.2841 56.9395 48.5879C57.4954 49.1349 58.0086 49.5328 58.5218 49.682C58.8639 50.2291 59.1633 51.2238 59.035 52.5666ZM56.2125 53.4618C56.1269 53.2131 55.9131 52.7158 55.571 51.8703C55.0578 50.5772 53.9459 48.7868 51.551 47.9413C48.3436 46.7975 46.5902 47.3445 45.7776 47.8916C45.8204 47.8419 45.8632 47.7424 45.9487 47.6927C45.9915 47.6927 46.0342 47.6429 46.077 47.5932C46.3336 47.2451 46.5902 46.9964 46.8468 46.7477C47.9587 46.3001 49.6693 46.1012 52.1497 46.9467C55.4427 48.1403 56.4263 50.9254 56.7257 52.0692C56.8112 52.4671 56.8967 52.9147 56.8967 53.2628C56.8539 53.2628 56.8539 53.2628 56.8112 53.2628C56.7684 53.2628 56.6829 53.3126 56.6401 53.3623C56.5118 53.3126 56.3835 53.412 56.2125 53.4618ZM51.2089 49.682C50.7385 49.8312 50.3108 50.0799 50.0542 50.428C49.6693 49.9307 48.9423 49.5825 48.087 49.5825C47.7876 49.5825 47.531 49.6323 47.2744 49.682C48.087 49.3339 49.1561 49.2344 50.2253 49.4334C50.5674 49.4831 50.9095 49.5826 51.2089 49.682ZM48.087 50.3783C48.9851 50.3783 49.6693 50.8756 49.6693 51.3232C49.6693 51.5719 49.4982 51.8206 49.1561 51.9698C49.0706 52.0195 48.9851 52.0692 48.8995 52.119C48.6429 52.2184 48.3863 52.2682 48.087 52.2682C47.1889 52.2682 46.5046 51.7708 46.5046 51.3232C46.5474 50.8756 47.1889 50.3783 48.087 50.3783ZM49.1561 52.9147C49.2417 52.865 49.3272 52.865 49.4127 52.8152C49.5838 52.7655 49.7548 52.7655 49.9687 52.7655C50.9095 52.7655 51.551 53.2628 51.551 53.7104C51.551 54.158 50.9095 54.6554 49.9687 54.6554C49.0278 54.6554 48.3863 54.158 48.3863 53.7104C48.3863 53.412 48.6857 53.1136 49.1561 52.9147ZM50.4391 51.3232C50.4391 50.8756 51.0806 50.3783 52.0214 50.3783C52.1925 50.3783 52.3208 50.3783 52.4918 50.428C53.1333 50.5275 53.6038 50.9254 53.6038 51.2735V51.3232C53.6038 51.6216 53.3044 51.92 52.834 52.119C52.5774 52.2184 52.3208 52.2682 52.0214 52.2682C51.0806 52.2184 50.4391 51.7211 50.4391 51.3232ZM45.6493 52.0195C45.6066 51.8703 45.6066 51.7211 45.6493 51.5222C45.6921 51.1243 45.8632 50.7762 46.1198 50.4778C45.9487 50.7264 45.8632 50.9751 45.8632 51.2735C45.8632 51.5222 45.9487 51.7708 46.0342 51.9698C45.9059 51.9698 45.7776 52.0195 45.6493 52.0195ZM54.1169 51.9698C54.1169 52.0195 54.0742 52.0195 54.1169 51.9698C54.0742 51.9698 54.0742 51.9698 54.1169 51.9698ZM44.4947 53.7104C44.4947 53.5115 44.6657 53.2628 44.9223 53.1136C45.1361 52.9644 45.35 52.9147 45.6066 52.865C45.7349 52.8152 45.9059 52.8152 46.0342 52.8152C46.9751 52.8152 47.6166 53.3126 47.6166 53.7602C47.6166 54.0088 47.4455 54.2078 47.3172 54.3072C47.0178 54.5559 46.5474 54.7051 46.077 54.7051C45.1361 54.6554 44.4947 54.158 44.4947 53.7104ZM47.9159 57.0426C46.9751 57.0426 46.3336 56.595 46.3336 56.1474C46.3336 55.6998 47.0178 55.2522 47.9159 55.2522V55.2024C47.9159 55.2024 47.9159 55.2024 47.9587 55.2024C48.4291 55.2024 48.8568 55.3516 49.1561 55.5506C49.2844 55.65 49.4982 55.849 49.4982 56.0977C49.4982 56.595 48.8568 57.0426 47.9159 57.0426ZM52.0214 57.0426C51.0806 57.0426 50.4391 56.5453 50.4391 56.0977C50.4391 55.9485 50.4819 55.7993 50.6102 55.6501C50.9095 55.3516 51.4227 55.1527 51.9787 55.1527C52.278 55.1527 52.5346 55.2024 52.7912 55.3019C53.2616 55.4511 53.561 55.7993 53.561 56.0977C53.561 56.5453 52.9195 57.0426 52.0214 57.0426ZM55.3571 53.9591C55.1861 54.2575 54.6301 54.6056 53.8603 54.6056C53.6038 54.6056 53.3472 54.5559 53.1333 54.5062C52.6201 54.357 52.3208 54.0088 52.3208 53.7104C52.3208 53.412 52.6201 53.1136 53.0906 52.9147C53.3472 52.8152 53.6038 52.7655 53.9031 52.7655C54.0742 52.7655 54.2452 52.7655 54.4163 52.8152C55.015 52.9644 55.4427 53.3126 55.4427 53.6607C55.4427 53.8099 55.3999 53.8596 55.3571 53.9591Z" fill="#BF0909"/>
<path d="M75.6281 44.4102V22.5772C75.6281 22.3285 75.5426 22.0798 75.3715 21.9804C75.2004 21.8312 74.9866 21.8312 74.8156 21.9804L72.8911 23.2734V15.5647C72.8911 15.3161 72.7628 15.0674 72.5917 14.9679C72.3779 14.8685 72.1641 14.8685 71.993 14.9679L62.7556 21.7317C62.6701 21.7317 62.5846 21.7317 62.499 21.7814C60.9167 22.3782 59.4199 22.6766 58.0942 22.6766C53.6465 22.6766 52.1925 19.3942 52.1497 19.245C52.0642 18.9964 51.8504 18.7974 51.6365 18.7974C51.4227 18.7974 51.2089 18.9964 51.1233 19.245C51.0806 19.3942 49.6265 22.6269 45.1789 22.6269C43.8532 22.6269 42.3564 22.3285 40.774 21.7814C40.7313 21.7814 40.6885 21.7814 40.6457 21.7814L31.4083 14.9679C31.2373 14.8187 30.9379 14.8187 30.7241 14.9679C30.5103 15.0674 30.3392 15.3161 30.3392 15.5647V23.2237L28.4575 21.9306C28.2864 21.8312 27.9871 21.8312 27.816 21.9306C27.6877 22.1296 27.5167 22.3285 27.5167 22.5772V44.4102C27.5167 44.7086 27.5594 49.9307 31.28 54.357C34.6158 58.3356 39.8332 60.325 46.7612 60.325C46.804 60.325 46.8895 60.325 46.9323 60.2753C49.541 61.1705 51.0378 61.9165 51.0378 64.3534C51.0378 64.7015 51.2944 65 51.5938 65C51.8931 65 52.1497 64.7015 52.1497 64.3534C52.1497 61.8667 53.6465 61.1207 56.298 60.2255C56.3835 60.2753 56.4263 60.2753 56.5118 60.2753C63.4399 60.2753 68.5718 58.2859 71.9075 54.3072C75.7136 49.9307 75.6281 44.7086 75.6281 44.4102ZM42.9123 37.9946C43.7249 37.6465 44.0242 35.9058 44.0242 35.9058C44.0242 35.9058 45.2217 36.801 46.1198 36.3534C46.1198 36.7513 45.9915 37.4973 45.9915 37.4973C45.9915 37.4973 45.8632 37.9946 46.1198 38.5914C46.248 38.8898 46.3336 39.5363 46.3763 39.9342C45.9487 39.9342 45.521 39.9342 45.0506 39.9342C44.2808 39.9342 43.5966 39.9342 42.9123 39.9839C42.8696 39.1882 42.9123 38.7903 42.9123 37.9946ZM57.2388 36.6518H58.7784C58.6929 37.547 58.6929 38.4919 58.9495 39.8845C58.9067 39.8845 58.9067 39.8845 58.8639 39.8845L57.0678 39.6855C57.2816 38.4422 57.3244 37.5967 57.2388 36.6518ZM69.6837 39.5861C68.6145 40.8294 67.1605 41.476 65.3643 41.476C64.9367 39.9839 64.7228 38.5914 64.6373 37.2983L71.6509 32.7726C71.6937 33.4688 71.6509 37.2486 69.6837 39.5861ZM31.7077 32.7726L38.6357 37.2486C38.593 38.5914 38.3792 39.9839 37.9087 41.5257C36.1553 41.5257 34.7013 40.8791 33.6749 39.6358C31.7505 37.2983 31.7077 33.4688 31.7077 32.7726ZM74.4307 23.7708V37.3481L71.3515 39.3374C72.9339 36.5026 72.8911 32.9218 72.8911 32.6234V24.8649L74.4307 23.7708ZM71.5654 24.0195L66.3052 27.4511C66.0058 27.0532 65.1933 25.8596 63.4826 22.7761L71.5654 16.8081C71.5654 16.8578 71.5654 24.0195 71.5654 24.0195ZM57.9659 24.0195C59.2916 24.0195 60.8312 23.7708 62.3707 23.2237C64.0386 26.3072 64.9794 27.6997 65.4071 28.2965C64.5945 29.7886 62.3707 34.7619 64.0386 41.1776C63.1833 40.3321 61.6009 39.9839 59.6337 39.9342C59.3771 38.5417 59.3771 37.5967 59.4627 36.7015H62.3707C62.6701 36.7015 62.5846 36.1047 62.5846 35.6074V32.4742C62.5846 30.087 61.5154 29.9378 61.5154 29.9378C61.5154 29.9378 60.8312 29.8383 60.489 28.6944C60.1469 27.6003 59.591 26.6553 58.7356 26.5559C57.9231 26.4564 56.5546 27.2521 55.4854 27.8987C54.844 28.2965 54.8012 28.8933 54.7157 29.6891C54.5018 31.6287 53.8603 31.5292 53.8603 31.5292C53.561 31.5292 53.3044 31.9271 53.3044 32.4244V35.5576C53.3044 36.055 53.561 36.6518 53.8603 36.6518H56.5974C56.6829 37.547 56.5118 38.4422 56.2125 39.8845C54.288 39.9839 52.834 40.3818 51.8504 41.277V21.3836C52.9195 22.5274 54.8012 24.0195 57.9659 24.0195ZM50.6957 21.8809V40.9289C49.9259 40.3321 48.6857 40.0337 47.1461 39.9342C46.9751 38.9893 47.0178 36.7513 47.2317 36.1047C48.4719 35.8063 48.5146 34.3143 48.6002 33.071C48.6429 32.1758 48.3436 28.9431 48.3436 28.9431C48.4719 28.8436 48.9851 28.6944 49.1134 28.6447C49.2844 28.6447 49.4127 28.5452 49.4982 28.3463C49.541 28.0976 49.6265 27.7495 49.541 27.65C49.4555 27.5008 48.8568 27.4511 48.7285 27.2024C48.4291 26.8543 48.1725 26.6056 47.8731 26.6553C47.4883 26.7051 47.1461 26.6553 46.9323 27.1527C46.5902 26.8543 46.248 27.2521 45.8632 27.1029C45.8632 27.1029 45.7776 28.5949 47.1034 28.4457L47.2317 32.3747C47.2317 32.3747 47.3172 33.1704 46.3763 32.9715C45.6493 32.8223 43.9387 32.0266 43.1262 32.325C42.4847 32.5239 41.8432 32.9218 41.4155 34.4138C41.0306 35.9555 41.6721 35.4084 41.6721 35.4084L42.3564 34.8614C42.3564 34.8614 42.8268 36.2042 42.2708 36.9502C41.8432 37.547 42.0142 37.9946 42.0142 37.9946C42.0142 37.9946 42.1853 39.3374 42.1853 40.0337C40.9023 40.1829 39.876 40.4813 39.2345 41.0781C40.8596 34.7122 38.6358 29.7886 37.8232 28.2965C38.2936 27.6997 39.1489 26.3072 40.8596 23.2237C42.3991 23.7708 43.8532 24.0195 45.1789 24.0195C47.8731 24.0195 49.5838 22.9253 50.6957 21.8809ZM31.7077 16.8578L39.7049 22.7761C38.037 25.8099 37.2672 27.0035 36.9251 27.4511L31.7077 24.0195V16.8578ZM30.382 24.8649V32.6234C30.382 32.9715 30.2964 36.5026 31.8788 39.3374L28.7569 37.3481V23.7708L30.382 24.8649ZM29.099 46.5985L36.7968 51.5221C37.4383 53.7602 38.8923 55.5506 40.9879 57.3907C41.5438 57.888 42.1853 58.3356 42.8268 58.6838C38.2081 58.0372 34.6585 56.2966 32.2209 53.412C30.2537 51.0248 29.3984 48.3889 29.099 46.5985ZM51.6365 61.8667C50.6957 60.1758 48.7712 59.5293 46.7612 58.8827C45.0078 58.2859 43.1689 57.6394 41.6721 56.3463C37.866 52.9147 36.4547 50.0799 38.5075 43.2664H64.7228C66.8184 50.0799 65.4071 52.9147 61.5582 56.3463C60.0614 57.6891 58.2652 58.2859 56.4691 58.8827C54.5018 59.4795 52.5774 60.1261 51.6365 61.8667ZM71.1805 53.3623C68.7001 56.2966 65.1077 58.087 60.4463 58.6838C61.0878 58.3356 61.7292 57.9378 62.2852 57.3907C64.338 55.5506 65.792 53.8099 66.4335 51.5719C66.4762 51.5719 66.519 51.5221 66.5618 51.5221L74.2596 46.5985C73.9602 48.3889 73.1477 51.0248 71.1805 53.3623Z" fill="#BF0909"/>
<path d="M51.5509 18.3499C55.0577 18.3002 57.8374 16.2611 57.8374 13.675C57.8374 11.0888 55.0577 9 51.5509 9C48.0441 9 45.3071 11.0391 45.3071 13.6252C45.3071 16.2611 48.0441 18.3002 51.5509 18.3499ZM51.5509 10.7407C53.347 10.7407 54.6728 11.5861 54.6728 12.6306C54.6728 13.4263 53.9457 14.1226 52.8338 14.421C51.7647 14.8188 52.1496 15.2664 51.5936 15.6643C51.0377 15.2664 51.4653 14.8188 50.3534 14.421C49.1988 14.1226 48.4717 13.4263 48.4717 12.6306C48.4717 11.5861 49.7975 10.7407 51.5509 10.7407Z" fill="#BF0909"/>
<path d="M108.715 29.954V42.9382C108.715 48.3184 106.37 51.0444 101.621 51.0444C100.325 51.0444 99.1533 50.8292 98.0429 50.4705C96.9326 50.1118 95.9456 49.5379 95.2054 48.8923L96.5625 46.1663C97.1177 46.7402 97.8579 47.1706 98.7215 47.4576C99.5851 47.8163 100.51 47.9597 101.436 47.9597C102.854 47.9597 103.965 47.601 104.643 46.812C105.322 46.0229 105.63 44.8751 105.63 43.2969V42.5795C105.075 43.2252 104.458 43.7273 103.718 44.086C102.978 44.4447 102.114 44.5881 101.251 44.5881C100.017 44.5881 98.8449 44.3012 97.8579 43.6556C96.8709 43.0099 96.069 42.1491 95.4522 41.0013C94.897 39.8536 94.5886 38.5623 94.5886 37.1276C94.5886 35.6929 94.897 34.4016 95.4522 33.2538C96.069 32.1061 96.8709 31.2452 97.8579 30.6714C98.9065 30.0257 100.017 29.7388 101.251 29.7388C102.176 29.7388 103.039 29.954 103.841 30.3127C104.643 30.6714 105.26 31.2452 105.815 31.9626V29.954H108.715ZM101.682 41.5752C102.854 41.5752 103.78 41.1448 104.52 40.3557C105.26 39.5666 105.63 38.4906 105.63 37.1993C105.63 35.9081 105.26 34.9038 104.52 34.0429C103.78 33.2538 102.854 32.8234 101.682 32.8234C100.51 32.8234 99.5234 33.2538 98.7832 34.0429C98.0429 34.832 97.6728 35.9081 97.6728 37.1993C97.6728 38.4906 98.0429 39.5666 98.7832 40.3557C99.5234 41.1448 100.51 41.5752 101.682 41.5752Z" fill="#BF0909"/>
<path d="M118.646 45.521C117.289 45.521 116.117 45.1623 115.068 44.5167C114.02 43.8711 113.156 42.9385 112.539 41.719C111.922 40.4995 111.676 39.1365 111.676 37.6301C111.676 36.1236 111.984 34.7606 112.539 33.6129C113.156 32.3933 113.958 31.5325 115.068 30.8151C116.117 30.1695 117.351 29.8108 118.646 29.8108C120.003 29.8108 121.175 30.1695 122.286 30.8151C123.334 31.4608 124.198 32.3933 124.753 33.6129C125.37 34.8324 125.678 36.1236 125.678 37.6301C125.678 39.1365 125.37 40.4995 124.753 41.719C124.136 42.9385 123.334 43.7994 122.286 44.5167C121.237 45.1623 120.003 45.521 118.646 45.521ZM118.646 42.4364C119.756 42.4364 120.743 42.006 121.484 41.1451C122.224 40.2843 122.594 39.1365 122.594 37.7018C122.594 36.2671 122.224 35.1193 121.484 34.2585C120.743 33.3976 119.818 32.9672 118.646 32.9672C117.474 32.9672 116.549 33.3976 115.809 34.2585C115.068 35.1193 114.698 36.2671 114.698 37.7018C114.698 39.1365 115.068 40.2843 115.809 41.1451C116.61 42.006 117.536 42.4364 118.646 42.4364Z" fill="#BF0909"/>
<path d="M135.918 29.8106C137.214 29.8106 138.324 30.1693 139.373 30.8149C140.421 31.4606 141.161 32.3931 141.778 33.5409C142.395 34.6887 142.642 36.1234 142.642 37.6299C142.642 39.2081 142.333 40.571 141.778 41.7906C141.223 43.0101 140.421 43.8709 139.373 44.5165C138.386 45.1621 137.214 45.5208 135.918 45.5208C134.993 45.5208 134.191 45.3056 133.451 44.9469C132.711 44.5883 132.094 44.0144 131.6 43.297V45.3056H128.639V24H131.724V31.8192C132.279 31.1736 132.896 30.6715 133.574 30.3128C134.314 29.9541 135.055 29.8106 135.918 29.8106ZM135.61 42.4362C136.72 42.4362 137.645 42.0058 138.386 41.1449C139.126 40.2841 139.496 39.1363 139.496 37.7016C139.496 36.2669 139.126 35.1191 138.386 34.2583C137.645 33.3974 136.72 32.967 135.61 32.967C134.87 32.967 134.191 33.1822 133.636 33.5409C133.019 33.8996 132.587 34.4735 132.217 35.1908C131.847 35.9082 131.724 36.769 131.724 37.7016C131.724 38.6342 131.909 39.495 132.217 40.2124C132.587 40.9297 133.019 41.5036 133.636 41.934C134.191 42.221 134.87 42.4362 135.61 42.4362Z" fill="#BF0909"/>
<path d="M146.281 45.5208C145.725 45.5208 145.232 45.3056 144.862 44.8751C144.492 44.4447 144.245 43.8708 144.245 43.1535C144.245 42.4361 144.43 41.8622 144.8 41.4318C145.17 41.0014 145.664 40.7862 146.281 40.7862C146.836 40.7862 147.329 41.0014 147.699 41.4318C148.069 41.8622 148.316 42.4361 148.316 43.1535C148.316 43.8708 148.131 44.4447 147.699 44.8751C147.329 45.3056 146.836 45.5208 146.281 45.5208Z" fill="#BF0909"/>
<path d="M158.618 29.8108C159.913 29.8108 161.024 30.1695 162.072 30.8151C163.121 31.4608 163.861 32.3933 164.478 33.5411C165.033 34.7606 165.342 36.1236 165.342 37.6301C165.342 39.2083 165.033 40.5712 164.478 41.7908C163.923 43.0103 163.121 43.8711 162.072 44.5167C161.085 45.1624 159.913 45.521 158.618 45.521C156.829 45.521 155.41 44.8037 154.423 43.4407V50.9012H151.339V29.9543H154.3V31.9629C154.794 31.2456 155.41 30.6717 156.151 30.313C156.829 30.0261 157.693 29.8108 158.618 29.8108ZM158.248 42.4364C159.358 42.4364 160.284 42.006 161.024 41.1451C161.764 40.2843 162.134 39.1365 162.134 37.7018C162.134 36.2671 161.764 35.1193 161.024 34.2585C160.284 33.3976 159.358 32.9672 158.248 32.9672C157.508 32.9672 156.829 33.1824 156.274 33.5411C155.657 33.8998 155.225 34.4737 154.855 35.191C154.485 35.9084 154.362 36.7692 154.362 37.7018C154.362 38.6344 154.547 39.4952 154.855 40.2126C155.225 40.9299 155.657 41.5038 156.274 41.9342C156.829 42.2212 157.508 42.4364 158.248 42.4364Z" fill="#BF0909"/>
<path d="M180.578 37.7016C180.578 37.9168 180.578 38.2755 180.517 38.7776H170.153C170.339 39.9254 170.832 40.7863 171.572 41.5036C172.374 42.1492 173.299 42.5079 174.41 42.5079C175.829 42.5079 177.062 41.934 177.988 40.858L179.653 43.0818C179.036 43.8709 178.296 44.5165 177.432 44.9469C176.507 45.3774 175.52 45.5926 174.348 45.5926C172.929 45.5926 171.634 45.2339 170.524 44.5883C169.413 43.9426 168.55 43.0101 167.933 41.7906C167.316 40.5711 167.069 39.2081 167.069 37.7016C167.069 36.1952 167.378 34.9039 167.933 33.6844C168.55 32.4649 169.352 31.5323 170.4 30.8867C171.449 30.2411 172.621 29.8824 173.916 29.8824C175.212 29.8824 176.322 30.2411 177.371 30.8867C178.419 31.5323 179.16 32.4649 179.715 33.6844C180.27 34.7604 180.578 36.1952 180.578 37.7016ZM173.916 32.6801C172.929 32.6801 172.066 33.0388 171.387 33.6844C170.709 34.33 170.277 35.2626 170.153 36.4104H177.617C177.494 35.3343 177.062 34.4018 176.384 33.6844C175.767 33.0388 174.903 32.6801 173.916 32.6801Z" fill="#BF0909"/>
</svg>
